<svg width="36" height="36" viewBox="0 0 36 36" fill="none" xmlns="http://www.w3.org/2000/svg">
<path d="M16.0791 21.7041L29.5791 8.20409C29.6836 8.09957 29.8077 8.01665 29.9443 7.96009C30.0808 7.90352 30.2272 7.8744 30.375 7.8744C30.5228 7.8744 30.6692 7.90352 30.8058 7.96009C30.9423 8.01665 31.0664 8.09957 31.171 8.20409C31.2755 8.30861 31.3584 8.4327 31.415 8.56927C31.4715 8.70584 31.5006 8.85221 31.5006 9.00003C31.5006 9.14785 31.4715 9.29422 31.415 9.43079C31.3584 9.56735 31.2755 9.69144 31.171 9.79597L17.671 23.296C17.5664 23.4005 17.4423 23.4834 17.3058 23.54C17.1692 23.5965 17.0228 23.6257 16.875 23.6257C16.7272 23.6257 16.5808 23.5965 16.4443 23.54C16.3077 23.4834 16.1836 23.4005 16.0791 23.296C15.9746 23.1914 15.8916 23.0674 15.8351 22.9308C15.7785 22.7942 15.7494 22.6478 15.7494 22.5C15.7494 22.3522 15.7785 22.2058 15.8351 22.0693C15.8916 21.9327 15.9746 21.8086 16.0791 21.7041ZM18 12.375C18.9772 12.3738 19.9481 12.532 20.8744 12.8433C21.015 12.8932 21.1642 12.9146 21.3132 12.9062C21.4621 12.8979 21.608 12.86 21.7422 12.7948C21.8764 12.7295 21.9963 12.6382 22.0948 12.5262C22.1934 12.4142 22.2687 12.2837 22.3164 12.1423C22.364 12.0009 22.3831 11.8515 22.3724 11.7026C22.3618 11.5538 22.3216 11.4086 22.2543 11.2754C22.187 11.1422 22.0938 11.0238 21.9803 10.927C21.8668 10.8302 21.7351 10.7569 21.593 10.7114C19.8002 10.107 17.8839 9.96453 16.0214 10.2971C14.159 10.6297 12.4105 11.4266 10.9376 12.6141C9.46483 13.8017 8.31529 15.3415 7.59537 17.0911C6.87545 18.8407 6.6084 20.7436 6.81892 22.6238C6.84936 22.8988 6.98005 23.1529 7.18603 23.3376C7.39201 23.5223 7.65882 23.6246 7.93549 23.625C7.97627 23.625 8.01846 23.625 8.06064 23.618C8.35712 23.5851 8.62841 23.4358 8.81486 23.203C9.0013 22.9701 9.08763 22.6728 9.05486 22.3763C9.01825 22.0438 8.99994 21.7095 9.00002 21.375C9.00262 18.9889 9.95167 16.7012 11.6389 15.0139C13.3262 13.3267 15.6139 12.3776 18 12.375ZM32.026 14.2032C31.9586 14.0717 31.8659 13.9547 31.7533 13.8591C31.6407 13.7634 31.5104 13.6908 31.3698 13.6455C31.2291 13.6002 31.0809 13.583 30.9337 13.595C30.7864 13.6069 30.6429 13.6478 30.5114 13.7152C30.3799 13.7826 30.263 13.8752 30.1673 13.9878C30.0717 14.1004 29.9991 14.2308 29.9538 14.3714C29.9085 14.512 29.8913 14.6602 29.9032 14.8075C29.9152 14.9548 29.9561 15.0982 30.0235 15.2297C30.8558 16.8642 31.3473 18.6507 31.4681 20.4809C31.589 22.3111 31.3367 24.1467 30.7266 25.8764L5.25939 25.8666C4.54885 23.8298 4.33547 21.6527 4.63704 19.5167C4.9386 17.3808 5.74638 15.3478 6.99303 13.5874C8.23968 11.8269 9.88909 10.39 11.8038 9.39631C13.7184 8.40265 15.8429 7.88106 18 7.87503H18.1238C20.219 7.8882 22.2817 8.39401 24.1453 9.35159C24.2772 9.42415 24.4222 9.46952 24.5719 9.48502C24.7216 9.50051 24.8729 9.48582 25.0168 9.4418C25.1607 9.39778 25.2944 9.32533 25.4098 9.22874C25.5252 9.13216 25.62 9.0134 25.6887 8.8795C25.7574 8.74559 25.7986 8.59927 25.8097 8.44919C25.8208 8.2991 25.8017 8.14831 25.7535 8.00574C25.7053 7.86317 25.629 7.73172 25.5291 7.61917C25.4292 7.50662 25.3077 7.41526 25.1719 7.3505C22.3664 5.91348 19.1942 5.35135 16.0657 5.73681C12.9372 6.12227 9.99638 7.43758 7.62358 9.51262C5.25077 11.5876 3.55518 14.3269 2.75614 17.3761C1.95709 20.4253 2.09137 23.6441 3.14158 26.6161C3.29672 27.0565 3.58442 27.4379 3.96516 27.7081C4.34589 27.9783 4.80097 28.124 5.26783 28.125H30.7308C31.1974 28.1253 31.6526 27.9805 32.0333 27.7107C32.414 27.4408 32.7014 27.0593 32.8556 26.6189C33.5652 24.6008 33.8575 22.4597 33.7149 20.3252C33.5723 18.1908 32.9977 16.1075 32.026 14.2017V14.2032Z" fill="white"/>
</svg>
