<svg width="74" height="74" viewBox="0 0 74 74" fill="none" xmlns="http://www.w3.org/2000/svg">
<path d="M69.375 30.0625H66.2531L58.223 11.9961C57.8596 11.1787 57.2669 10.4842 56.5168 9.99683C55.7667 9.50943 54.8914 9.25001 53.9969 9.25H20.0031C19.1086 9.25001 18.2333 9.50943 17.4832 9.99683C16.7331 10.4842 16.1404 11.1787 15.777 11.9961L7.74687 30.0625H4.625C4.01169 30.0625 3.42349 30.3061 2.98982 30.7398C2.55614 31.1735 2.3125 31.7617 2.3125 32.375C2.3125 32.9883 2.55614 33.5765 2.98982 34.0102C3.42349 34.4439 4.01169 34.6875 4.625 34.6875H6.9375V57.8125C6.9375 59.0391 7.42478 60.2155 8.29213 61.0829C9.15949 61.9502 10.3359 62.4375 11.5625 62.4375H18.5C19.7266 62.4375 20.903 61.9502 21.7704 61.0829C22.6377 60.2155 23.125 59.0391 23.125 57.8125V53.1875H50.875V57.8125C50.875 59.0391 51.3623 60.2155 52.2296 61.0829C53.097 61.9502 54.2734 62.4375 55.5 62.4375H62.4375C63.6641 62.4375 64.8405 61.9502 65.7079 61.0829C66.5752 60.2155 67.0625 59.0391 67.0625 57.8125V34.6875H69.375C69.9883 34.6875 70.5765 34.4439 71.0102 34.0102C71.4439 33.5765 71.6875 32.9883 71.6875 32.375C71.6875 31.7617 71.4439 31.1735 71.0102 30.7398C70.5765 30.3061 69.9883 30.0625 69.375 30.0625ZM20.0031 13.875H53.9969L61.1916 30.0625H12.8084L20.0031 13.875ZM18.5 57.8125H11.5625V53.1875H18.5V57.8125ZM55.5 57.8125V53.1875H62.4375V57.8125H55.5ZM62.4375 48.5625H11.5625V34.6875H62.4375V48.5625ZM16.1875 41.625C16.1875 41.0117 16.4311 40.4235 16.8648 39.9898C17.2985 39.5561 17.8867 39.3125 18.5 39.3125H23.125C23.7383 39.3125 24.3265 39.5561 24.7602 39.9898C25.1939 40.4235 25.4375 41.0117 25.4375 41.625C25.4375 42.2383 25.1939 42.8265 24.7602 43.2602C24.3265 43.6939 23.7383 43.9375 23.125 43.9375H18.5C17.8867 43.9375 17.2985 43.6939 16.8648 43.2602C16.4311 42.8265 16.1875 42.2383 16.1875 41.625ZM48.5625 41.625C48.5625 41.0117 48.8061 40.4235 49.2398 39.9898C49.6735 39.5561 50.2617 39.3125 50.875 39.3125H55.5C56.1133 39.3125 56.7015 39.5561 57.1352 39.9898C57.5689 40.4235 57.8125 41.0117 57.8125 41.625C57.8125 42.2383 57.5689 42.8265 57.1352 43.2602C56.7015 43.6939 56.1133 43.9375 55.5 43.9375H50.875C50.2617 43.9375 49.6735 43.6939 49.2398 43.2602C48.8061 42.8265 48.5625 42.2383 48.5625 41.625Z" fill="#343330"/>
</svg>
