<svg width="78" height="78" viewBox="0 0 78 78" fill="none" xmlns="http://www.w3.org/2000/svg">
<path d="M73.125 34.125H64.3835L51.1875 20.929C50.7365 20.4744 50.1995 20.1139 49.6079 19.8686C49.0164 19.6233 48.3819 19.498 47.7415 19.5H13.4916C12.6908 19.5015 11.9028 19.7002 11.1971 20.0786C10.4914 20.4569 9.88972 21.0033 9.44531 21.6694L0.408281 35.2097C0.142752 35.611 0.000794801 36.0814 0 36.5625L0 51.1875C0 52.4805 0.513615 53.7204 1.42785 54.6347C2.34209 55.5489 3.58207 56.0625 4.875 56.0625H10.0547C10.5917 58.1598 11.8114 60.0187 13.5216 61.3461C15.2317 62.6736 17.3351 63.3941 19.5 63.3941C21.6649 63.3941 23.7683 62.6736 25.4784 61.3461C27.1886 60.0187 28.4083 58.1598 28.9453 56.0625H49.0547C49.5917 58.1598 50.8114 60.0187 52.5216 61.3461C54.2317 62.6736 56.3351 63.3941 58.5 63.3941C60.6649 63.3941 62.7683 62.6736 64.4784 61.3461C66.1886 60.0187 67.4083 58.1598 67.9453 56.0625H73.125C74.4179 56.0625 75.6579 55.5489 76.5721 54.6347C77.4864 53.7204 78 52.4805 78 51.1875V39C78 37.7071 77.4864 36.4671 76.5721 35.5529C75.6579 34.6386 74.4179 34.125 73.125 34.125ZM13.4916 24.375H47.7415L57.4915 34.125H7.00781L13.4916 24.375ZM19.5 58.5C18.5358 58.5 17.5933 58.2141 16.7916 57.6784C15.9899 57.1428 15.3651 56.3814 14.9961 55.4906C14.6271 54.5998 14.5306 53.6196 14.7187 52.674C14.9068 51.7283 15.3711 50.8597 16.0529 50.1779C16.7346 49.4961 17.6033 49.0318 18.5489 48.8437C19.4946 48.6556 20.4748 48.7521 21.3656 49.1211C22.2564 49.4901 23.0177 50.1149 23.5534 50.9166C24.0891 51.7183 24.375 52.6608 24.375 53.625C24.375 54.918 23.8614 56.1579 22.9471 57.0722C22.0329 57.9864 20.7929 58.5 19.5 58.5ZM58.5 58.5C57.5358 58.5 56.5933 58.2141 55.7916 57.6784C54.9899 57.1428 54.3651 56.3814 53.9961 55.4906C53.6271 54.5998 53.5306 53.6196 53.7187 52.674C53.9068 51.7283 54.3711 50.8597 55.0529 50.1779C55.7346 49.4961 56.6033 49.0318 57.5489 48.8437C58.4946 48.6556 59.4748 48.7521 60.3656 49.1211C61.2564 49.4901 62.0177 50.1149 62.5534 50.9166C63.0891 51.7183 63.375 52.6608 63.375 53.625C63.375 54.918 62.8614 56.1579 61.9471 57.0722C61.0329 57.9864 59.7929 58.5 58.5 58.5ZM73.125 51.1875H67.9453C67.4083 49.0903 66.1886 47.2314 64.4784 45.9039C62.7683 44.5764 60.6649 43.8559 58.5 43.8559C56.3351 43.8559 54.2317 44.5764 52.5216 45.9039C50.8114 47.2314 49.5917 49.0903 49.0547 51.1875H28.9453C28.4083 49.0903 27.1886 47.2314 25.4784 45.9039C23.7683 44.5764 21.6649 43.8559 19.5 43.8559C17.3351 43.8559 15.2317 44.5764 13.5216 45.9039C11.8114 47.2314 10.5917 49.0903 10.0547 51.1875H4.875V39H73.125V51.1875Z" fill="#343330"/>
</svg>
