<svg width="37" height="37" viewBox="0 0 37 37" fill="none" xmlns="http://www.w3.org/2000/svg">
<path d="M17.3438 18.5V6.9375C17.3438 6.63084 17.4656 6.33675 17.6824 6.11991C17.8992 5.90307 18.1933 5.78125 18.5 5.78125C18.8067 5.78125 19.1008 5.90307 19.3176 6.11991C19.5344 6.33675 19.6562 6.63084 19.6562 6.9375V18.5C19.6562 18.8067 19.5344 19.1008 19.3176 19.3176C19.1008 19.5344 18.8067 19.6562 18.5 19.6562C18.1933 19.6562 17.8992 19.5344 17.6824 19.3176C17.4656 19.1008 17.3438 18.8067 17.3438 18.5ZM26.0691 7.12539C25.8123 6.96308 25.5019 6.90836 25.2051 6.97306C24.9083 7.03776 24.6489 7.21667 24.4829 7.47112C24.3169 7.72557 24.2578 8.03512 24.3182 8.33283C24.3787 8.63055 24.5538 8.89252 24.8059 9.06211C28.146 11.2402 30.0625 14.68 30.0625 18.5C30.0625 21.5666 28.8443 24.5075 26.6759 26.6759C24.5075 28.8443 21.5666 30.0625 18.5 30.0625C15.4334 30.0625 12.4925 28.8443 10.3241 26.6759C8.15569 24.5075 6.9375 21.5666 6.9375 18.5C6.9375 14.68 8.85398 11.2402 12.1941 9.06211C12.4462 8.89252 12.6213 8.63055 12.6818 8.33283C12.7422 8.03512 12.6831 7.72557 12.5171 7.47112C12.3511 7.21667 12.0917 7.03776 11.7949 6.97306C11.4981 6.90836 11.1877 6.96308 10.9309 7.12539C6.92305 9.73852 4.625 13.8837 4.625 18.5C4.625 22.1799 6.08683 25.709 8.68889 28.3111C11.291 30.9132 14.8201 32.375 18.5 32.375C22.1799 32.375 25.709 30.9132 28.3111 28.3111C30.9132 25.709 32.375 22.1799 32.375 18.5C32.375 13.8837 30.077 9.73852 26.0691 7.12539Z" fill="white"/>
</svg>
