<svg width="261" height="94" viewBox="0 0 261 94" fill="none" xmlns="http://www.w3.org/2000/svg">
<rect x="3.5" y="3.5" width="254" height="87" rx="16.5" fill="#2A9D38" stroke="white" stroke-width="7"/>
<path d="M92.45 33.85V44.05H104.45V48.7H92.45V59.35H105.95V64H86.75V29.2H105.95V33.85H92.45ZM132.309 54.1C132.642 55.7667 133.359 57.0333 134.459 57.9C135.559 58.7667 137.042 59.2 138.909 59.2C141.276 59.2 143.009 58.2667 144.109 56.4C145.209 54.5333 145.759 51.35 145.759 46.85C144.959 47.9833 143.826 48.8667 142.359 49.5C140.926 50.1 139.359 50.4 137.659 50.4C135.492 50.4 133.526 49.9667 131.759 49.1C129.992 48.2 128.592 46.8833 127.559 45.15C126.559 43.3833 126.059 41.25 126.059 38.75C126.059 35.0833 127.126 32.1667 129.259 30C131.426 27.8 134.392 26.7 138.159 26.7C142.692 26.7 145.909 28.2167 147.809 31.25C149.742 34.25 150.709 38.8667 150.709 45.1C150.709 49.4 150.342 52.9167 149.609 55.65C148.909 58.3833 147.676 60.45 145.909 61.85C144.142 63.25 141.692 63.95 138.559 63.95C134.992 63.95 132.242 63.0167 130.309 61.15C128.376 59.2833 127.292 56.9333 127.059 54.1H132.309ZM138.659 45.6C140.659 45.6 142.226 44.9833 143.359 43.75C144.526 42.4833 145.109 40.8167 145.109 38.75C145.109 36.45 144.492 34.6667 143.259 33.4C142.059 32.1 140.409 31.45 138.309 31.45C136.209 31.45 134.542 32.1167 133.309 33.45C132.109 34.75 131.509 36.4667 131.509 38.6C131.509 40.6333 132.092 42.3167 133.259 43.65C134.459 44.95 136.259 45.6 138.659 45.6ZM180.447 32.45H163.697V42.4C164.397 41.4667 165.431 40.6833 166.797 40.05C168.197 39.4167 169.681 39.1 171.247 39.1C174.047 39.1 176.314 39.7 178.047 40.9C179.814 42.1 181.064 43.6167 181.797 45.45C182.564 47.2833 182.947 49.2167 182.947 51.25C182.947 53.7167 182.464 55.9167 181.497 57.85C180.564 59.75 179.147 61.25 177.247 62.35C175.381 63.45 173.081 64 170.347 64C166.714 64 163.797 63.1 161.597 61.3C159.397 59.5 158.081 57.1167 157.647 54.15H163.197C163.564 55.7167 164.381 56.9667 165.647 57.9C166.914 58.8 168.497 59.25 170.397 59.25C172.764 59.25 174.531 58.5333 175.697 57.1C176.897 55.6667 177.497 53.7667 177.497 51.4C177.497 49 176.897 47.1667 175.697 45.9C174.497 44.6 172.731 43.95 170.397 43.95C168.764 43.95 167.381 44.3667 166.247 45.2C165.147 46 164.347 47.1 163.847 48.5H158.447V27.45H180.447V32.45Z" fill="white"/>
</svg>
