<svg width="100" height="41" viewBox="0 0 100 41" fill="none" xmlns="http://www.w3.org/2000/svg">
<path d="M22.85 4.9498V11.7998H8.54999V19.1998H19.25V25.8498H8.54999V40.0498H-5.96792e-06V4.9498H22.85ZM31.6437 9.2498C30.1437 9.2498 28.9104 8.81647 27.9437 7.9498C27.0104 7.0498 26.5437 5.9498 26.5437 4.6498C26.5437 3.31647 27.0104 2.21647 27.9437 1.3498C28.9104 0.449802 30.1437 -0.000198245 31.6437 -0.000198245C33.1104 -0.000198245 34.3104 0.449802 35.2437 1.3498C36.2104 2.21647 36.6937 3.31647 36.6937 4.6498C36.6937 5.9498 36.2104 7.0498 35.2437 7.9498C34.3104 8.81647 33.1104 9.2498 31.6437 9.2498ZM35.8937 12.1498V40.0498H27.3437V12.1498H35.8937ZM50.6398 3.0498V40.0498H42.0898V3.0498H50.6398ZM61.1359 9.2498C59.6359 9.2498 58.4026 8.81647 57.4359 7.9498C56.5026 7.0498 56.0359 5.9498 56.0359 4.6498C56.0359 3.31647 56.5026 2.21647 57.4359 1.3498C58.4026 0.449802 59.6359 -0.000198245 61.1359 -0.000198245C62.6026 -0.000198245 63.8026 0.449802 64.7359 1.3498C65.7026 2.21647 66.1859 3.31647 66.1859 4.6498C66.1859 5.9498 65.7026 7.0498 64.7359 7.9498C63.8026 8.81647 62.6026 9.2498 61.1359 9.2498ZM65.3859 12.1498V40.0498H56.8359V12.1498H65.3859ZM88.582 11.8498C91.8487 11.8498 94.4487 12.9165 96.382 15.0498C98.3487 17.1498 99.332 20.0498 99.332 23.7498V40.0498H90.832V24.8998C90.832 23.0331 90.3487 21.5831 89.382 20.5498C88.4154 19.5165 87.1154 18.9998 85.482 18.9998C83.8487 18.9998 82.5487 19.5165 81.582 20.5498C80.6154 21.5831 80.132 23.0331 80.132 24.8998V40.0498H71.582V12.1498H80.132V15.8498C80.9987 14.6165 82.1654 13.6498 83.632 12.9498C85.0987 12.2165 86.7487 11.8498 88.582 11.8498Z" fill="#FFC700"/>
</svg>
