<svg width="65" height="65" viewBox="0 0 65 65" fill="none" xmlns="http://www.w3.org/2000/svg">
<path d="M64.8553 29.707L61.3006 20.8203C60.9989 20.068 60.4781 19.4237 59.8058 18.971C59.1334 18.5183 58.3406 18.278 57.5301 18.2812H48.75V16.25C48.75 15.7113 48.536 15.1946 48.1551 14.8137C47.7741 14.4328 47.2575 14.2188 46.7188 14.2188C46.18 14.2188 45.6634 14.4328 45.2824 14.8137C44.9015 15.1946 44.6875 15.7113 44.6875 16.25V41.7193C43.7535 42.2592 42.9359 42.9791 42.2821 43.8373C41.6283 44.6955 41.1514 45.6749 40.8789 46.7188H28.1836C27.7361 44.971 26.7197 43.422 25.2945 42.3157C23.8694 41.2095 22.1166 40.6091 20.3125 40.6091C18.5084 40.6091 16.7556 41.2095 15.3305 42.3157C13.9053 43.422 12.8889 44.971 12.4414 46.7188H8.125V34.5312C8.125 33.9925 7.91099 33.4759 7.53006 33.0949C7.14913 32.714 6.63247 32.5 6.09375 32.5C5.55503 32.5 5.03837 32.714 4.65744 33.0949C4.27651 33.4759 4.0625 33.9925 4.0625 34.5312V46.7188C4.0625 47.7962 4.49051 48.8295 5.25238 49.5914C6.01425 50.3532 7.04756 50.7812 8.125 50.7812H12.4414C12.8889 52.529 13.9053 54.078 15.3305 55.1843C16.7556 56.2905 18.5084 56.8909 20.3125 56.8909C22.1166 56.8909 23.8694 56.2905 25.2945 55.1843C26.7197 54.078 27.7361 52.529 28.1836 50.7812H40.8789C41.3264 52.529 42.3428 54.078 43.768 55.1843C45.1931 56.2905 46.9459 56.8909 48.75 56.8909C50.5541 56.8909 52.3069 56.2905 53.732 55.1843C55.1572 54.078 56.1736 52.529 56.6211 50.7812H60.9375C62.0149 50.7812 63.0483 50.3532 63.8101 49.5914C64.572 48.8295 65 47.7962 65 46.7188V30.4688C65.0016 30.2079 64.9525 29.9491 64.8553 29.707ZM57.5301 22.3438L59.9676 28.4375H48.75V22.3438H57.5301ZM20.3125 52.8125C19.509 52.8125 18.7236 52.5742 18.0555 52.1278C17.3874 51.6815 16.8667 51.047 16.5592 50.3047C16.2518 49.5623 16.1713 48.7455 16.3281 47.9574C16.4848 47.1694 16.8717 46.4455 17.4399 45.8774C18.008 45.3092 18.7319 44.9223 19.5199 44.7656C20.308 44.6088 21.1248 44.6893 21.8672 44.9967C22.6095 45.3042 23.244 45.8249 23.6903 46.493C24.1367 47.1611 24.375 47.9465 24.375 48.75C24.375 49.8274 23.947 50.8608 23.1851 51.6226C22.4233 52.3845 21.3899 52.8125 20.3125 52.8125ZM48.75 52.8125C47.9465 52.8125 47.1611 52.5742 46.493 52.1278C45.8249 51.6815 45.3042 51.047 44.9967 50.3047C44.6893 49.5623 44.6088 48.7455 44.7656 47.9574C44.9223 47.1694 45.3092 46.4455 45.8774 45.8774C46.4455 45.3092 47.1694 44.9223 47.9574 44.7656C48.7455 44.6088 49.5623 44.6893 50.3047 44.9967C51.047 45.3042 51.6815 45.8249 52.1278 46.493C52.5742 47.1611 52.8125 47.9465 52.8125 48.75C52.8125 49.8274 52.3845 50.8608 51.6226 51.6226C50.8608 52.3845 49.8274 52.8125 48.75 52.8125ZM56.6211 46.7188C56.1682 44.9753 55.1499 43.4313 53.7255 42.3286C52.3012 41.2258 50.5513 40.6267 48.75 40.625V32.5H60.9375V46.7188H56.6211ZM6.09375 24.375C5.55503 24.375 5.03837 24.589 4.65744 24.9699C4.27651 25.3509 4.0625 25.8675 4.0625 26.4062C4.0625 26.945 4.27651 27.4616 4.65744 27.8426C5.03837 28.2235 5.55503 28.4375 6.09375 28.4375H38.5938C39.1325 28.4375 39.6491 28.2235 40.0301 27.8426C40.411 27.4616 40.625 26.945 40.625 26.4062C40.625 25.8675 40.411 25.3509 40.0301 24.9699C39.6491 24.589 39.1325 24.375 38.5938 24.375H34.5312V18.2812H38.5938C39.1325 18.2812 39.6491 18.0672 40.0301 17.6863C40.411 17.3054 40.625 16.7887 40.625 16.25C40.625 15.7113 40.411 15.1946 40.0301 14.8137C39.6491 14.4328 39.1325 14.2188 38.5938 14.2188H6.09375C5.55503 14.2188 5.03837 14.4328 4.65744 14.8137C4.27651 15.1946 4.0625 15.7113 4.0625 16.25C4.0625 16.7887 4.27651 17.3054 4.65744 17.6863C5.03837 18.0672 5.55503 18.2812 6.09375 18.2812H10.1562V24.375H6.09375ZM30.4688 24.375H24.375V18.2812H30.4688V24.375ZM14.2188 18.2812H20.3125V24.375H14.2188V18.2812Z" fill="#343330"/>
</svg>
