<svg width="169" height="65" viewBox="0 0 169 65" fill="none" xmlns="http://www.w3.org/2000/svg">
<path d="M41.52 7.92008V18.8801H18.64V30.7201H35.76V41.3601H18.64V64.0801H4.96V7.92008H41.52ZM55.59 14.8001C53.19 14.8001 51.2167 14.1067 49.67 12.7201C48.1767 11.2801 47.43 9.52008 47.43 7.44008C47.43 5.30674 48.1767 3.54674 49.67 2.16007C51.2167 0.720074 53.19 7.34329e-05 55.59 7.34329e-05C57.9367 7.34329e-05 59.8567 0.720074 61.35 2.16007C62.8967 3.54674 63.67 5.30674 63.67 7.44008C63.67 9.52008 62.8967 11.2801 61.35 12.7201C59.8567 14.1067 57.9367 14.8001 55.59 14.8001ZM62.39 19.4401V64.0801H48.71V19.4401H62.39ZM85.9838 4.88008V64.0801H72.3038V4.88008H85.9838ZM102.778 14.8001C100.378 14.8001 98.4042 14.1067 96.8575 12.7201C95.3642 11.2801 94.6175 9.52008 94.6175 7.44008C94.6175 5.30674 95.3642 3.54674 96.8575 2.16007C98.4042 0.720074 100.378 7.34329e-05 102.778 7.34329e-05C105.124 7.34329e-05 107.044 0.720074 108.538 2.16007C110.084 3.54674 110.858 5.30674 110.858 7.44008C110.858 9.52008 110.084 11.2801 108.538 12.7201C107.044 14.1067 105.124 14.8001 102.778 14.8001ZM109.578 19.4401V64.0801H95.8975V19.4401H109.578ZM146.691 18.9601C151.918 18.9601 156.078 20.6667 159.171 24.0801C162.318 27.4401 163.891 32.0801 163.891 38.0001V64.0801H150.291V39.8401C150.291 36.8534 149.518 34.5334 147.971 32.8801C146.425 31.2267 144.345 30.4001 141.731 30.4001C139.118 30.4001 137.038 31.2267 135.491 32.8801C133.945 34.5334 133.171 36.8534 133.171 39.8401V64.0801H119.491V19.4401H133.171V25.3601C134.558 23.3867 136.425 21.8401 138.771 20.7201C141.118 19.5467 143.758 18.9601 146.691 18.9601Z" fill="#FFC700"/>
</svg>
