<svg width="52" height="52" viewBox="0 0 52 52" fill="none" xmlns="http://www.w3.org/2000/svg">
<path d="M11.375 15.4375C11.375 12.2052 12.659 9.10524 14.9446 6.81964C17.2302 4.53404 20.3301 3.25 23.5625 3.25C26.7948 3.25 29.8947 4.53404 32.1803 6.81964C34.4659 9.10524 35.75 12.2052 35.75 15.4375C35.75 15.8685 35.5788 16.2818 35.274 16.5865C34.9693 16.8913 34.5559 17.0625 34.125 17.0625C33.694 17.0625 33.2807 16.8913 32.9759 16.5865C32.6712 16.2818 32.5 15.8685 32.5 15.4375C32.5 13.0671 31.5583 10.7938 29.8822 9.11773C28.2061 7.44163 25.9328 6.5 23.5625 6.5C21.1921 6.5 18.9188 7.44163 17.2427 9.11773C15.5666 10.7938 14.625 13.0671 14.625 15.4375C14.625 15.8685 14.4538 16.2818 14.149 16.5865C13.8443 16.8913 13.4309 17.0625 13 17.0625C12.569 17.0625 12.1557 16.8913 11.8509 16.5865C11.5462 16.2818 11.375 15.8685 11.375 15.4375ZM39.8125 24.375C38.8645 24.374 37.9315 24.6107 37.0987 25.0636C36.8499 24.2935 36.4396 23.5855 35.8952 22.9867C35.3508 22.3878 34.6849 21.9121 33.942 21.5912C33.1991 21.2703 32.3963 21.1117 31.5871 21.1258C30.778 21.14 29.9812 21.3267 29.25 21.6734V15.4375C29.25 13.9291 28.6507 12.4824 27.5841 11.4158C26.5175 10.3492 25.0709 9.75 23.5625 9.75C22.054 9.75 20.6074 10.3492 19.5408 11.4158C18.4742 12.4824 17.875 13.9291 17.875 15.4375V31.6875L17.099 30.4423C16.3402 29.1384 15.0945 28.1892 13.6359 27.8037C12.1773 27.4182 10.6253 27.6279 9.32137 28.3867C8.0174 29.1455 7.06826 30.3912 6.68275 31.8498C6.29725 33.3084 6.50696 34.8604 7.26575 36.1644L13.2214 46.3206C13.3213 46.5184 13.4605 46.6937 13.6307 46.8357C13.8008 46.9777 13.9982 47.0834 14.2106 47.1463C14.4231 47.2092 14.6462 47.228 14.8662 47.2015C15.0862 47.175 15.2985 47.1038 15.49 46.9922C15.6814 46.8807 15.8481 46.7312 15.9796 46.5528C16.1112 46.3745 16.2048 46.1712 16.2549 45.9553C16.305 45.7394 16.3104 45.5156 16.2707 45.2976C16.2311 45.0796 16.1473 44.8719 16.0245 44.6875L10.075 34.5312C9.90793 34.2538 9.79786 33.9459 9.75117 33.6254C9.70448 33.305 9.72212 32.9784 9.80304 32.6649C9.88397 32.3513 10.0266 32.057 10.2225 31.7992C10.4185 31.5413 10.6638 31.3251 10.9443 31.1632C11.2247 31.0012 11.5346 30.8968 11.8558 30.856C12.1771 30.8151 12.5033 30.8387 12.8153 30.9253C13.1273 31.012 13.419 31.1599 13.6732 31.3605C13.9274 31.5611 14.1391 31.8104 14.2959 32.0938L14.3243 32.1405L18.1187 38.2342C18.305 38.5348 18.5843 38.7664 18.9142 38.8939C19.244 39.0214 19.6065 39.0378 19.9465 38.9406C20.2866 38.8435 20.5856 38.638 20.7983 38.3554C21.011 38.0729 21.1257 37.7287 21.125 37.375V15.4375C21.125 14.791 21.3818 14.171 21.8389 13.7139C22.296 13.2568 22.916 13 23.5625 13C24.2089 13 24.8289 13.2568 25.286 13.7139C25.7432 14.171 26 14.791 26 15.4375V29.25C26 29.681 26.1712 30.0943 26.4759 30.399C26.7807 30.7038 27.194 30.875 27.625 30.875C28.0559 30.875 28.4693 30.7038 28.774 30.399C29.0788 30.0943 29.25 29.681 29.25 29.25V26.8125C29.25 26.166 29.5068 25.546 29.9639 25.0889C30.421 24.6318 31.041 24.375 31.6875 24.375C32.3339 24.375 32.9539 24.6318 33.411 25.0889C33.8682 25.546 34.125 26.166 34.125 26.8125V30.875C34.125 31.306 34.2962 31.7193 34.6009 32.024C34.9057 32.3288 35.319 32.5 35.75 32.5C36.1809 32.5 36.5943 32.3288 36.899 32.024C37.2038 31.7193 37.375 31.306 37.375 30.875V30.0625C37.375 29.416 37.6318 28.796 38.0889 28.3389C38.546 27.8818 39.166 27.625 39.8125 27.625C40.4589 27.625 41.0789 27.8818 41.536 28.3389C41.9932 28.796 42.25 29.416 42.25 30.0625V37.375C42.25 41.7645 40.8078 44.7484 40.7956 44.7728C40.6031 45.1583 40.5715 45.6044 40.7079 46.0131C40.8443 46.4219 41.1374 46.7597 41.5228 46.9523C41.7482 47.0663 41.9974 47.1255 42.25 47.125C42.5519 47.1252 42.8478 47.0413 43.1047 46.8828C43.3616 46.7242 43.5692 46.4972 43.7043 46.2272C43.7795 46.0789 45.502 42.5709 45.502 37.375V30.0625C45.502 29.3154 45.3548 28.5757 45.0689 27.8855C44.7829 27.1953 44.3638 26.5683 43.8354 26.0401C43.3071 25.512 42.6799 25.0931 41.9896 24.8074C41.2993 24.5216 40.5595 24.3747 39.8125 24.375Z" fill="#343330"/>
</svg>
