<svg width="60" height="60" viewBox="0 0 60 60" fill="none" xmlns="http://www.w3.org/2000/svg">
<path d="M53.9836 33.0609C53.3705 32.5884 52.6676 32.2456 51.9177 32.0534C51.1678 31.8612 50.3867 31.8236 49.6219 31.9429C54.0234 27.4992 56.25 23.0812 56.25 18.75C56.25 12.5461 51.2602 7.49998 45.1266 7.49998C43.4991 7.48976 41.8891 7.83589 40.4096 8.51409C38.9301 9.19228 37.617 10.1861 36.5625 11.4258C35.508 10.1861 34.1949 9.19228 32.7154 8.51409C31.2359 7.83589 29.6259 7.48976 27.9984 7.49998C21.8648 7.49998 16.875 12.5461 16.875 18.75C16.875 21.3281 17.6344 23.8336 19.2328 26.4844C17.9237 26.816 16.729 27.4964 15.7758 28.4531L10.4742 33.75H3.75C2.75544 33.75 1.80161 34.1451 1.09835 34.8483C0.395088 35.5516 0 36.5054 0 37.5L0 46.875C0 47.8695 0.395088 48.8234 1.09835 49.5266C1.80161 50.2299 2.75544 50.625 3.75 50.625H28.125C28.2783 50.625 28.431 50.6062 28.5797 50.5687L43.5797 46.8187C43.6753 46.796 43.7687 46.7646 43.8586 46.725L52.9688 42.8484L53.0719 42.8015C53.9474 42.364 54.6972 41.7108 55.2505 40.9035C55.8039 40.0961 56.1426 39.1612 56.2347 38.1868C56.3268 37.2123 56.1694 36.2305 55.7772 35.3337C55.385 34.4369 54.771 33.6548 53.993 33.0609H53.9836ZM27.9984 11.25C29.4507 11.2287 30.8762 11.6411 32.0928 12.4343C33.3094 13.2276 34.2618 14.3657 34.8281 15.7031C34.9694 16.047 35.2097 16.3411 35.5185 16.5481C35.8273 16.7551 36.1907 16.8657 36.5625 16.8657C36.9343 16.8657 37.2977 16.7551 37.6065 16.5481C37.9153 16.3411 38.1556 16.047 38.2969 15.7031C38.8632 14.3657 39.8156 13.2276 41.0322 12.4343C42.2488 11.6411 43.6743 11.2287 45.1266 11.25C49.1227 11.25 52.5 14.6836 52.5 18.75C52.5 23.3226 48.7992 28.4953 41.7984 33.7265L39.1992 34.3242C39.4274 33.3604 39.4344 32.3575 39.2198 31.3906C39.0052 30.4238 38.5746 29.518 37.9602 28.7412C37.3457 27.9644 36.5635 27.3368 35.672 26.9054C34.7805 26.4739 33.8029 26.2499 32.8125 26.25H23.5969C21.5742 23.5219 20.625 21.1219 20.625 18.75C20.625 14.6836 24.0023 11.25 27.9984 11.25ZM3.75 37.5H9.375V46.875H3.75V37.5ZM51.4289 39.4242L42.5227 43.2164L27.8906 46.875H13.125V36.4008L18.4289 31.0992C18.7759 30.7495 19.1889 30.4722 19.6439 30.2835C20.099 30.0948 20.587 29.9984 21.0797 30H32.8125C33.5584 30 34.2738 30.2963 34.8012 30.8237C35.3287 31.3512 35.625 32.0666 35.625 32.8125C35.625 33.5584 35.3287 34.2738 34.8012 34.8012C34.2738 35.3287 33.5584 35.625 32.8125 35.625H26.25C25.7527 35.625 25.2758 35.8225 24.9242 36.1741C24.5725 36.5258 24.375 37.0027 24.375 37.5C24.375 37.9973 24.5725 38.4742 24.9242 38.8258C25.2758 39.1774 25.7527 39.375 26.25 39.375H33.75C33.8911 39.3746 34.0318 39.3589 34.1695 39.3281L49.8727 35.7164L49.9453 35.6976C50.4247 35.5646 50.9363 35.6135 51.3818 35.8349C51.8273 36.0564 52.1751 36.4348 52.3584 36.8973C52.5416 37.3598 52.5474 37.8738 52.3745 38.3403C52.2016 38.8068 51.8623 39.1928 51.4219 39.4242H51.4289Z" fill="#343330"/>
</svg>
