<svg width="43" height="43" viewBox="0 0 43 43" fill="none" xmlns="http://www.w3.org/2000/svg">
<circle cx="21.5" cy="21.5" r="21" stroke="black"/>
<path d="M21.5 16.8125C20.5729 16.8125 19.6666 17.0874 18.8958 17.6025C18.1249 18.1176 17.5241 18.8496 17.1693 19.7062C16.8145 20.5627 16.7217 21.5052 16.9026 22.4145C17.0834 23.3238 17.5299 24.159 18.1854 24.8146C18.841 25.4701 19.6762 25.9166 20.5855 26.0974C21.4948 26.2783 22.4373 26.1855 23.2938 25.8307C24.1504 25.4759 24.8824 24.8751 25.3975 24.1042C25.9126 23.3334 26.1875 22.4271 26.1875 21.5C26.1862 20.2572 25.6919 19.0657 24.8131 18.1869C23.9343 17.3081 22.7428 16.8138 21.5 16.8125ZM21.5 24.625C20.8819 24.625 20.2777 24.4417 19.7638 24.0983C19.2499 23.755 18.8494 23.2669 18.6129 22.6959C18.3764 22.1249 18.3145 21.4965 18.435 20.8903C18.5556 20.2842 18.8533 19.7273 19.2903 19.2903C19.7273 18.8533 20.2842 18.5556 20.8903 18.435C21.4965 18.3145 22.1249 18.3764 22.6959 18.6129C23.2669 18.8494 23.755 19.2499 24.0983 19.7638C24.4417 20.2777 24.625 20.8819 24.625 21.5C24.625 22.3288 24.2958 23.1237 23.7097 23.7097C23.1237 24.2958 22.3288 24.625 21.5 24.625ZM26.1875 11.3438H16.8125C15.3626 11.3453 13.9725 11.922 12.9472 12.9472C11.922 13.9725 11.3453 15.3626 11.3438 16.8125V26.1875C11.3453 27.6374 11.922 29.0275 12.9472 30.0528C13.9725 31.078 15.3626 31.6547 16.8125 31.6562H26.1875C27.6374 31.6547 29.0275 31.078 30.0528 30.0528C31.078 29.0275 31.6547 27.6374 31.6562 26.1875V16.8125C31.6547 15.3626 31.078 13.9725 30.0528 12.9472C29.0275 11.922 27.6374 11.3453 26.1875 11.3438ZM30.0938 26.1875C30.0938 27.2235 29.6822 28.2171 28.9496 28.9496C28.2171 29.6822 27.2235 30.0938 26.1875 30.0938H16.8125C15.7765 30.0938 14.7829 29.6822 14.0504 28.9496C13.3178 28.2171 12.9062 27.2235 12.9062 26.1875V16.8125C12.9062 15.7765 13.3178 14.7829 14.0504 14.0504C14.7829 13.3178 15.7765 12.9062 16.8125 12.9062H26.1875C27.2235 12.9062 28.2171 13.3178 28.9496 14.0504C29.6822 14.7829 30.0938 15.7765 30.0938 16.8125V26.1875ZM27.75 16.4219C27.75 16.6536 27.6813 16.8802 27.5525 17.0729C27.4237 17.2656 27.2407 17.4158 27.0266 17.5045C26.8124 17.5932 26.5768 17.6164 26.3495 17.5712C26.1222 17.526 25.9134 17.4144 25.7495 17.2505C25.5856 17.0866 25.474 16.8778 25.4288 16.6505C25.3836 16.4232 25.4068 16.1876 25.4955 15.9734C25.5842 15.7593 25.7344 15.5763 25.9271 15.4475C26.1198 15.3187 26.3464 15.25 26.5781 15.25C26.8889 15.25 27.187 15.3735 27.4068 15.5932C27.6265 15.813 27.75 16.1111 27.75 16.4219Z" fill="#343330"/>
</svg>
