<svg width="84" height="84" viewBox="0 0 84 84" fill="none" xmlns="http://www.w3.org/2000/svg">
<path d="M81.1158 56.6114C80.9014 56.166 80.5656 55.7902 80.1471 55.5273C79.7285 55.2643 79.2443 55.1249 78.75 55.125H47.25V47.25H70.875C71.3835 47.2499 71.881 47.1022 72.3071 46.8247C72.7332 46.5473 73.0695 46.1521 73.2753 45.6871C73.481 45.2221 73.5473 44.7074 73.466 44.2054C73.3847 43.7035 73.1594 43.236 72.8175 42.8597L47.25 14.7361V2.62497C47.2471 2.08389 47.077 1.55693 46.7631 1.11622C46.4492 0.675508 46.0067 0.342571 45.4963 0.162975C44.9859 -0.0166203 44.4325 -0.0340992 43.9117 0.112931C43.391 0.259961 42.9284 0.564316 42.5873 0.984341L8.46234 42.9843C8.15385 43.3696 7.96024 43.8341 7.90372 44.3244C7.84721 44.8148 7.93008 45.3111 8.14283 45.7565C8.35558 46.2018 8.68959 46.5782 9.10652 46.8424C9.52346 47.1065 10.0064 47.2478 10.5 47.25H42V55.125H5.25C4.75531 55.1247 4.2706 55.2641 3.85174 55.5273C3.43288 55.7905 3.09691 56.1667 2.88257 56.6126C2.66822 57.0584 2.58422 57.5557 2.64024 58.0472C2.69626 58.5388 2.89003 59.0044 3.19921 59.3906L12.9117 71.5312C13.4025 72.1468 14.0259 72.6436 14.7356 72.9845C15.4452 73.3254 16.2227 73.5016 17.01 73.5H66.99C67.7773 73.5016 68.5548 73.3254 69.2644 72.9845C69.9741 72.6436 70.5975 72.1468 71.0883 71.5312L80.8008 59.3906C81.1099 59.0041 81.3035 58.5382 81.3593 58.0464C81.415 57.5547 81.3306 57.0572 81.1158 56.6114ZM64.9425 42H47.25V22.5389L64.9425 42ZM16.0158 42L42 10.0176V42H16.0158ZM66.99 68.25H17.01L10.71 60.375H73.29L66.99 68.25Z" fill="#343330"/>
</svg>
