<svg width="43" height="43" viewBox="0 0 43 43" fill="none" xmlns="http://www.w3.org/2000/svg">
<circle cx="21.5" cy="21.5" r="21" stroke="black"/>
<path d="M29.9786 24.2366L25.746 22.34L25.7343 22.3346C25.5146 22.2407 25.2749 22.203 25.0369 22.2249C24.799 22.2469 24.5702 22.3278 24.3714 22.4604C24.348 22.4759 24.3255 22.4927 24.304 22.5107L22.1172 24.375C20.7318 23.7021 19.3015 22.2825 18.6286 20.9151L20.4956 18.6951C20.5135 18.6726 20.5306 18.6502 20.5468 18.6259C20.6765 18.4276 20.7553 18.2003 20.7759 17.9643C20.7966 17.7282 20.7586 17.4907 20.6654 17.2729V17.2621L18.7634 13.0223C18.64 12.7378 18.428 12.5007 18.1589 12.3466C17.8898 12.1924 17.578 12.1294 17.2702 12.167C16.0528 12.3272 14.9353 12.9251 14.1265 13.849C13.3177 14.7729 12.8728 15.9596 12.875 17.1875C12.875 24.3211 18.6789 30.125 25.8125 30.125C27.0404 30.1272 28.2271 29.6824 29.151 28.8735C30.0749 28.0647 30.6728 26.9473 30.833 25.7298C30.8706 25.4221 30.8078 25.1104 30.6538 24.8413C30.4998 24.5722 30.263 24.3601 29.9786 24.2366ZM25.8125 28.6875C22.7635 28.6842 19.8404 27.4715 17.6845 25.3156C15.5285 23.1596 14.3158 20.2365 14.3125 17.1875C14.3091 16.3102 14.6252 15.4616 15.2017 14.8003C15.7782 14.1389 16.5758 13.7101 17.4454 13.5938C17.445 13.5973 17.445 13.6009 17.4454 13.6045L19.3321 17.8272L17.475 20.0499C17.4562 20.0716 17.439 20.0947 17.4238 20.1191C17.2886 20.3266 17.2093 20.5654 17.1935 20.8126C17.1778 21.0597 17.2262 21.3067 17.334 21.5297C18.1479 23.1945 19.8253 24.8593 21.5081 25.6723C21.7327 25.7791 21.9811 25.8258 22.2291 25.8079C22.4772 25.7899 22.7163 25.7079 22.9231 25.5699C22.9462 25.5544 22.9684 25.5376 22.9896 25.5196L25.1737 23.6563L29.3964 25.5475C29.3964 25.5475 29.4036 25.5475 29.4063 25.5475C29.2914 26.4183 28.8631 27.2174 28.2017 27.7954C27.5402 28.3733 26.6909 28.6905 25.8125 28.6875Z" fill="#343330"/>
</svg>
