<svg width="43" height="43" viewBox="0 0 43 43" fill="none" xmlns="http://www.w3.org/2000/svg">
<path d="M28.9872 13.9438C28.8952 13.8644 28.7833 13.8115 28.6635 13.791C28.5437 13.7705 28.4205 13.783 28.3073 13.8273L13.2662 19.7136C13.053 19.7964 12.8725 19.9463 12.7519 20.1407C12.6313 20.335 12.5771 20.5633 12.5974 20.7911C12.6178 21.0189 12.7116 21.2339 12.8647 21.4038C13.0179 21.5737 13.222 21.6892 13.4465 21.733L17.3437 22.4982V26.8438C17.343 27.0804 17.4133 27.3119 17.5456 27.5082C17.678 27.7044 17.8662 27.8564 18.0859 27.9444C18.3053 28.034 18.5466 28.0555 18.7783 28.0061C19.0101 27.9568 19.2217 27.8388 19.3855 27.6676L21.2647 25.7186L24.2461 28.3281C24.4612 28.5189 24.7386 28.6245 25.0261 28.625C25.1521 28.6249 25.2773 28.6051 25.3972 28.5664C25.5931 28.5042 25.7693 28.3918 25.9083 28.2404C26.0472 28.0889 26.144 27.9037 26.1891 27.7032L29.2017 14.5977C29.2286 14.4795 29.2229 14.3562 29.1851 14.241C29.1473 14.1258 29.0789 14.0231 28.9872 13.9438ZM24.4494 16.6157L17.8002 21.3775L14.1189 20.6554L24.4494 16.6157ZM18.5312 26.8438V23.3198L20.3711 24.9334L18.5312 26.8438ZM25.0276 27.4375L18.8912 22.0566L27.7232 15.7265L25.0276 27.4375Z" fill="#343330"/>
<circle cx="21.5" cy="21.5" r="21" stroke="black"/>
</svg>
