<svg width="73" height="73" viewBox="0 0 73 73" fill="none" xmlns="http://www.w3.org/2000/svg">
<path d="M72.8346 33.3633L68.8424 23.3828C68.5037 22.5384 67.9193 21.8151 67.1648 21.3067C66.4103 20.7983 65.5205 20.5281 64.6107 20.5312H54.75V18.25C54.75 17.645 54.5097 17.0647 54.0818 16.6369C53.654 16.2091 53.0738 15.9688 52.4688 15.9688H9.125C7.91495 15.9688 6.75446 16.4494 5.89883 17.3051C5.04319 18.1607 4.5625 19.3212 4.5625 20.5312V52.4688C4.5625 53.6788 5.04319 54.8393 5.89883 55.6949C6.75446 56.5506 7.91495 57.0312 9.125 57.0312H13.9727C14.4752 58.9941 15.6168 60.7338 17.2173 61.9762C18.8178 63.2185 20.7864 63.8929 22.8125 63.8929C24.8386 63.8929 26.8072 63.2185 28.4077 61.9762C30.0082 60.7338 31.1498 58.9941 31.6523 57.0312H45.9102C46.4127 58.9941 47.5543 60.7338 49.1548 61.9762C50.7553 63.2185 52.7239 63.8929 54.75 63.8929C56.7761 63.8929 58.7447 63.2185 60.3452 61.9762C61.9457 60.7338 63.0873 58.9941 63.5898 57.0312H68.4375C69.6476 57.0312 70.808 56.5506 71.6637 55.6949C72.5193 54.8393 73 53.6788 73 52.4688V34.2188C73.0008 33.9256 72.9446 33.635 72.8346 33.3633ZM54.75 25.0938H64.6107L67.3482 31.9375H54.75V25.0938ZM9.125 20.5312H50.1875V38.7812H9.125V20.5312ZM22.8125 59.3125C21.9101 59.3125 21.028 59.0449 20.2777 58.5436C19.5274 58.0422 18.9426 57.3297 18.5973 56.496C18.252 55.6623 18.1616 54.7449 18.3377 53.8599C18.5137 52.9749 18.9482 52.1619 19.5863 51.5238C20.2244 50.8857 21.0374 50.4512 21.9224 50.2752C22.8074 50.0991 23.7248 50.1895 24.5585 50.5348C25.3922 50.8801 26.1047 51.4649 26.6061 52.2152C27.1074 52.9655 27.375 53.8476 27.375 54.75C27.375 55.96 26.8943 57.1205 26.0387 57.9762C25.183 58.8318 24.0226 59.3125 22.8125 59.3125ZM45.9102 52.4688H31.6523C31.1498 50.5059 30.0082 48.7662 28.4077 47.5238C26.8072 46.2815 24.8386 45.6071 22.8125 45.6071C20.7864 45.6071 18.8178 46.2815 17.2173 47.5238C15.6168 48.7662 14.4752 50.5059 13.9727 52.4688H9.125V43.3438H50.1875V46.854C49.1385 47.4604 48.2203 48.2689 47.4861 49.2327C46.7518 50.1965 46.2162 51.2964 45.9102 52.4688ZM54.75 59.3125C53.8476 59.3125 52.9655 59.0449 52.2152 58.5436C51.4649 58.0422 50.8801 57.3297 50.5348 56.496C50.1895 55.6623 50.0991 54.7449 50.2752 53.8599C50.4512 52.9749 50.8857 52.1619 51.5238 51.5238C52.1619 50.8857 52.9749 50.4512 53.8599 50.2752C54.7449 50.0991 55.6623 50.1895 56.496 50.5348C57.3297 50.8801 58.0422 51.4649 58.5436 52.2152C59.0449 52.9655 59.3125 53.8476 59.3125 54.75C59.3125 55.96 58.8318 57.1205 57.9762 57.9762C57.1205 58.8318 55.96 59.3125 54.75 59.3125ZM68.4375 52.4688H63.5898C63.0812 50.5107 61.9376 48.7767 60.3379 47.5382C58.7383 46.2998 56.773 45.6269 54.75 45.625V36.5H68.4375V52.4688Z" fill="#343330"/>
</svg>
