<svg width="76" height="76" viewBox="0 0 76 76" fill="none" xmlns="http://www.w3.org/2000/svg">
<path d="M75.427 31.7033L61.9073 15.9511C61.4615 15.4185 60.9042 14.9901 60.2749 14.6962C59.6455 14.4023 58.9593 14.25 58.2647 14.25H9.5C8.24022 14.25 7.03204 14.7504 6.14124 15.6412C5.25044 16.532 4.75 17.7402 4.75 19V52.25C4.75 53.5098 5.25044 54.718 6.14124 55.6088C7.03204 56.4996 8.24022 57 9.5 57H14.5469C15.0701 59.0435 16.2585 60.8547 17.9249 62.1481C19.5912 63.4416 21.6406 64.1436 23.75 64.1436C25.8594 64.1436 27.9088 63.4416 29.5751 62.1481C31.2415 60.8547 32.4299 59.0435 32.9531 57H47.7969C48.3201 59.0435 49.5085 60.8547 51.1749 62.1481C52.8412 63.4416 54.8906 64.1436 57 64.1436C59.1094 64.1436 61.1588 63.4416 62.8251 62.1481C64.4915 60.8547 65.6799 59.0435 66.2031 57H71.25C72.5098 57 73.718 56.4996 74.6088 55.6088C75.4996 54.718 76 53.5098 76 52.25V33.25C75.9999 32.6825 75.7967 32.1338 75.427 31.7033ZM68.4564 30.875H52.25V19H58.2647L68.4564 30.875ZM30.875 30.875V19H47.5V30.875H30.875ZM26.125 19V30.875H9.5V19H26.125ZM23.75 59.375C22.8105 59.375 21.8922 59.0964 21.111 58.5745C20.3299 58.0525 19.7211 57.3107 19.3616 56.4427C19.0021 55.5748 18.908 54.6197 19.0913 53.6983C19.2745 52.7769 19.7269 51.9305 20.3912 51.2662C21.0555 50.6019 21.9019 50.1495 22.8233 49.9663C23.7447 49.783 24.6998 49.8771 25.5677 50.2366C26.4357 50.5961 27.1775 51.2049 27.6995 51.986C28.2214 52.7672 28.5 53.6855 28.5 54.625C28.5 55.8848 27.9996 57.093 27.1088 57.9838C26.218 58.8746 25.0098 59.375 23.75 59.375ZM57 59.375C56.0605 59.375 55.1422 59.0964 54.361 58.5745C53.5799 58.0525 52.9711 57.3107 52.6116 56.4427C52.2521 55.5748 52.158 54.6197 52.3413 53.6983C52.5245 52.7769 52.9769 51.9305 53.6412 51.2662C54.3055 50.6019 55.1519 50.1495 56.0733 49.9663C56.9947 49.783 57.9498 49.8771 58.8177 50.2366C59.6857 50.5961 60.4275 51.2049 60.9495 51.986C61.4714 52.7672 61.75 53.6855 61.75 54.625C61.75 55.8848 61.2496 57.093 60.3588 57.9838C59.468 58.8746 58.2598 59.375 57 59.375ZM66.2031 52.25C65.6799 50.2065 64.4915 48.3953 62.8251 47.1019C61.1588 45.8084 59.1094 45.1064 57 45.1064C54.8906 45.1064 52.8412 45.8084 51.1749 47.1019C49.5085 48.3953 48.3201 50.2065 47.7969 52.25H32.9531C32.4299 50.2065 31.2415 48.3953 29.5751 47.1019C27.9088 45.8084 25.8594 45.1064 23.75 45.1064C21.6406 45.1064 19.5912 45.8084 17.9249 47.1019C16.2585 48.3953 15.0701 50.2065 14.5469 52.25H9.5V35.625H71.25V52.25H66.2031Z" fill="#343330"/>
</svg>
