<svg width="43" height="43" viewBox="0 0 43 43" fill="none" xmlns="http://www.w3.org/2000/svg">
<circle cx="21.5" cy="21.5" r="21" stroke="black"/>
<path d="M27.5857 22.5787L24.5857 21.0787C24.4676 21.0199 24.3361 20.9933 24.2044 21.0015C24.0727 21.0097 23.9455 21.0525 23.8357 21.1256L22.4585 22.0444C21.8263 21.6968 21.306 21.1766 20.9585 20.5444L21.8772 19.1672C21.9503 19.0573 21.9932 18.9302 22.0014 18.7985C22.0096 18.6668 21.983 18.5353 21.9241 18.4172L20.4241 15.4172C20.3619 15.2916 20.2658 15.186 20.1467 15.1123C20.0276 15.0385 19.8902 14.9996 19.7501 15C18.7555 15 17.8017 15.3951 17.0984 16.0983C16.3951 16.8016 16.0001 17.7554 16.0001 18.75C16.0025 20.9373 16.8725 23.0343 18.4192 24.5809C19.9658 26.1275 22.0628 26.9975 24.2501 27C24.7425 27 25.2301 26.903 25.6851 26.7145C26.1401 26.5261 26.5535 26.2499 26.9017 25.9017C27.2499 25.5534 27.5261 25.14 27.7146 24.6851C27.9031 24.2301 28.0001 23.7425 28.0001 23.25C28.0002 23.1107 27.9614 22.9741 27.8882 22.8555C27.8151 22.7369 27.7103 22.6411 27.5857 22.5787ZM24.2501 25.5C22.4605 25.498 20.7447 24.7862 19.4793 23.5208C18.2138 22.2553 17.502 20.5396 17.5001 18.75C17.4999 18.2298 17.68 17.7256 18.0097 17.3233C18.3395 16.9209 18.7984 16.6452 19.3085 16.5431L20.3847 18.6994L19.4688 20.0625C19.4004 20.1652 19.3583 20.2831 19.3464 20.406C19.3344 20.5288 19.353 20.6526 19.4004 20.7666C19.937 22.0419 20.9516 23.0565 22.2269 23.5931C22.3412 23.6426 22.466 23.6629 22.5901 23.6521C22.7141 23.6413 22.8336 23.5998 22.9376 23.5312L24.3072 22.6181L26.4635 23.6944C26.3606 24.205 26.0837 24.6642 25.6801 24.9935C25.2764 25.3228 24.771 25.5018 24.2501 25.5ZM22.0001 11.25C20.3167 11.2496 18.662 11.6851 17.1969 12.514C15.7318 13.3428 14.5063 14.5369 13.6396 15.98C12.7729 17.423 12.2946 19.0659 12.2512 20.7486C12.2078 22.4314 12.6008 24.0967 13.3919 25.5825L12.3279 28.7747C12.2397 29.039 12.2269 29.3226 12.2909 29.5938C12.3549 29.8649 12.4932 30.1129 12.6902 30.3099C12.8872 30.5069 13.1351 30.6451 13.4063 30.7091C13.6775 30.7731 13.9611 30.7603 14.2254 30.6722L17.4176 29.6081C18.7251 30.3036 20.174 30.6921 21.6541 30.744C23.1343 30.7959 24.6068 30.51 25.9599 29.9079C27.3131 29.3057 28.5112 28.4033 29.4635 27.269C30.4158 26.1346 31.0971 24.7983 31.4558 23.3613C31.8145 21.9244 31.8411 20.4246 31.5336 18.9758C31.2261 17.527 30.5926 16.1673 29.6812 14.9999C28.7698 13.8325 27.6044 12.8881 26.2735 12.2384C24.9426 11.5886 23.4811 11.2506 22.0001 11.25ZM22.0001 29.25C20.5497 29.251 19.1248 28.8691 17.8694 28.1428C17.7775 28.0895 17.6753 28.0563 17.5696 28.0455C17.4639 28.0347 17.3571 28.0464 17.2563 28.08L13.7501 29.25L14.9191 25.7438C14.9528 25.643 14.9647 25.5362 14.9541 25.4305C14.9434 25.3248 14.9104 25.2226 14.8572 25.1306C13.9478 23.5584 13.5827 21.7299 13.8185 19.929C14.0543 18.128 14.8779 16.4552 16.1614 15.1701C17.4449 13.8849 19.1167 13.0593 20.9173 12.8212C22.718 12.5831 24.5469 12.9459 26.1203 13.8533C27.6937 14.7607 28.9237 16.162 29.6194 17.8398C30.3152 19.5176 30.4378 21.3781 29.9683 23.1327C29.4987 24.8873 28.4633 26.4379 27.0226 27.5439C25.5818 28.65 23.8164 29.2497 22.0001 29.25Z" fill="#343330"/>
</svg>
