<svg width="169" height="92" viewBox="0 0 169 92" fill="none" xmlns="http://www.w3.org/2000/svg">
<path d="M16.824 77.328V79.382H14.796V89.86H16.824V91.927H12.404V77.328H16.824ZM23.2963 80.695C22.8629 80.695 22.4686 80.747 22.1133 80.851C21.7579 80.9463 21.4373 81.059 21.1513 81.189L20.6703 80.214C21.0256 80.0407 21.4329 79.9063 21.8923 79.811C22.3516 79.7157 22.8239 79.668 23.3093 79.668C24.0546 79.668 24.7003 79.785 25.2463 80.019C25.8009 80.2443 26.2603 80.565 26.6243 80.981C26.9883 81.397 27.2569 81.8867 27.4303 82.45C27.6123 83.0047 27.7033 83.6157 27.7033 84.283C27.7033 85.297 27.5386 86.1723 27.2093 86.909C26.8799 87.6457 26.3816 88.2133 25.7143 88.612C25.0556 89.0107 24.2236 89.21 23.2183 89.21C22.6809 89.21 22.2259 89.1797 21.8533 89.119C21.4806 89.0583 21.1123 88.963 20.7483 88.833V87.819C21.1123 87.9143 21.4806 88.001 21.8533 88.079C22.2259 88.1483 22.6203 88.183 23.0363 88.183C23.5996 88.183 24.0893 88.1093 24.5053 87.962C24.9299 87.806 25.2853 87.585 25.5713 87.299C25.8573 87.0043 26.0739 86.6447 26.2213 86.22C26.3686 85.7867 26.4509 85.2927 26.4683 84.738H21.9573V83.711H26.4553C26.4119 83.2343 26.3079 82.8097 26.1433 82.437C25.9786 82.0643 25.7576 81.748 25.4803 81.488C25.2116 81.228 24.8909 81.033 24.5183 80.903C24.1543 80.7643 23.7469 80.695 23.2963 80.695ZM32.4198 79.798C33.1912 79.798 33.8368 79.8717 34.3568 80.019C34.8855 80.1663 35.2798 80.409 35.5398 80.747C35.8085 81.085 35.9428 81.5357 35.9428 82.099C35.9428 82.463 35.8735 82.788 35.7348 83.074C35.6048 83.3513 35.4055 83.5853 35.1368 83.776C34.8768 83.958 34.5562 84.0837 34.1748 84.153V84.218C34.5648 84.2787 34.9158 84.3913 35.2278 84.556C35.5485 84.7207 35.7998 84.9547 35.9818 85.258C36.1638 85.5613 36.2548 85.9557 36.2548 86.441C36.2548 87.0043 36.1248 87.4853 35.8648 87.884C35.6048 88.274 35.2322 88.573 34.7468 88.781C34.2702 88.9803 33.6982 89.08 33.0308 89.08H29.7678V79.798H32.4198ZM32.6538 83.75C33.4512 83.75 33.9972 83.6243 34.2918 83.373C34.5865 83.113 34.7338 82.7317 34.7338 82.229C34.7338 81.7177 34.5518 81.3537 34.1878 81.137C33.8325 80.9117 33.2605 80.799 32.4718 80.799H30.9378V83.75H32.6538ZM30.9378 84.725V88.092H32.8098C33.6332 88.092 34.2052 87.9317 34.5258 87.611C34.8465 87.2903 35.0068 86.87 35.0068 86.35C35.0068 86.0207 34.9332 85.7347 34.7858 85.492C34.6472 85.2493 34.4088 85.063 34.0708 84.933C33.7415 84.7943 33.2908 84.725 32.7188 84.725H30.9378ZM44.0469 89.08L42.9289 86.207H39.2499L38.1449 89.08H36.9619L40.5889 79.759H41.6419L45.2559 89.08H44.0469ZM41.5379 82.359C41.5119 82.2897 41.4686 82.164 41.4079 81.982C41.3472 81.8 41.2866 81.6137 41.2259 81.423C41.1739 81.2237 41.1306 81.072 41.0959 80.968C41.0526 81.1413 41.0049 81.319 40.9529 81.501C40.9096 81.6743 40.8619 81.8347 40.8099 81.982C40.7666 82.1293 40.7276 82.255 40.6929 82.359L39.6399 85.167H42.5779L41.5379 82.359ZM53.2986 89.08H51.8946L47.6956 84.374V89.08H46.5256V79.798H47.6956V84.296L51.7906 79.798H53.1166L49.0866 84.309L53.2986 89.08ZM58.4488 86.441C58.1714 87.0563 57.8898 87.572 57.6038 87.988C57.3264 88.3953 56.9971 88.703 56.6158 88.911C56.2344 89.1103 55.7491 89.21 55.1598 89.21C54.9171 89.21 54.6874 89.1927 54.4708 89.158C54.2628 89.1233 54.0721 89.0757 53.8988 89.015V87.858C54.0721 87.936 54.2584 88.001 54.4578 88.053C54.6571 88.0963 54.8651 88.118 55.0818 88.118C55.4024 88.118 55.6754 88.0747 55.9008 87.988C56.1348 87.8927 56.3384 87.741 56.5118 87.533C56.6938 87.325 56.8628 87.0477 57.0188 86.701L53.4438 79.798H54.7308L57.3178 84.907C57.3524 84.9677 57.3871 85.0413 57.4218 85.128C57.4564 85.206 57.4911 85.2883 57.5258 85.375C57.5691 85.4617 57.6038 85.544 57.6298 85.622H57.6818C57.7078 85.5613 57.7338 85.492 57.7598 85.414C57.7944 85.3273 57.8248 85.245 57.8508 85.167C57.8854 85.0803 57.9158 85.0067 57.9418 84.946L60.1778 79.798H61.4128L58.4488 86.441ZM67.584 89.08L66.466 86.207H62.787L61.682 89.08H60.499L64.126 79.759H65.179L68.793 89.08H67.584ZM65.075 82.359C65.049 82.2897 65.0057 82.164 64.945 81.982C64.8844 81.8 64.8237 81.6137 64.763 81.423C64.711 81.2237 64.6677 81.072 64.633 80.968C64.5897 81.1413 64.542 81.319 64.49 81.501C64.4467 81.6743 64.399 81.8347 64.347 81.982C64.3037 82.1293 64.2647 82.255 64.23 82.359L63.177 85.167H66.115L65.075 82.359ZM72.0867 89.08H70.9167V80.825H68.0177V79.798H74.9727V80.825H72.0867V89.08ZM84.2174 84.426C84.2174 85.1453 84.1264 85.7997 83.9444 86.389C83.7624 86.9697 83.4894 87.4723 83.1254 87.897C82.7701 88.3217 82.3238 88.6467 81.7864 88.872C81.2578 89.0973 80.6424 89.21 79.9404 89.21C79.2124 89.21 78.5798 89.0973 78.0424 88.872C77.5051 88.638 77.0588 88.313 76.7034 87.897C76.3481 87.4723 76.0838 86.9653 75.9104 86.376C75.7371 85.7867 75.6504 85.1323 75.6504 84.413C75.6504 83.4597 75.8064 82.6277 76.1184 81.917C76.4304 81.2063 76.9028 80.6517 77.5354 80.253C78.1768 79.8543 78.9828 79.655 79.9534 79.655C80.8808 79.655 81.6608 79.8543 82.2934 80.253C82.9261 80.643 83.4028 81.1977 83.7234 81.917C84.0528 82.6277 84.2174 83.464 84.2174 84.426ZM76.8854 84.426C76.8854 85.206 76.9938 85.8777 77.2104 86.441C77.4271 87.0043 77.7608 87.4377 78.2114 87.741C78.6708 88.0443 79.2471 88.196 79.9404 88.196C80.6424 88.196 81.2144 88.0443 81.6564 87.741C82.1071 87.4377 82.4408 87.0043 82.6574 86.441C82.8741 85.8777 82.9824 85.206 82.9824 84.426C82.9824 83.256 82.7398 82.3417 82.2544 81.683C81.7691 81.0157 81.0021 80.682 79.9534 80.682C79.2514 80.682 78.6708 80.8337 78.2114 81.137C77.7608 81.4317 77.4271 81.8607 77.2104 82.424C76.9938 82.9787 76.8854 83.646 76.8854 84.426ZM88.7317 79.798C89.945 79.798 90.829 80.0363 91.3837 80.513C91.9383 80.9897 92.2157 81.6613 92.2157 82.528C92.2157 82.9093 92.1507 83.2777 92.0207 83.633C91.8993 83.9797 91.6957 84.2917 91.4097 84.569C91.1237 84.8463 90.7423 85.0673 90.2657 85.232C89.789 85.388 89.204 85.466 88.5107 85.466H87.4447V89.08H86.2747V79.798H88.7317ZM88.6277 80.799H87.4447V84.465H88.3807C88.97 84.465 89.4597 84.4043 89.8497 84.283C90.2397 84.153 90.53 83.9493 90.7207 83.672C90.9113 83.3947 91.0067 83.0307 91.0067 82.58C91.0067 81.982 90.816 81.5357 90.4347 81.241C90.0533 80.9463 89.451 80.799 88.6277 80.799ZM105.711 84.426C105.711 85.1453 105.62 85.7997 105.438 86.389C105.256 86.9697 104.983 87.4723 104.619 87.897C104.263 88.3217 103.817 88.6467 103.28 88.872C102.751 89.0973 102.136 89.21 101.434 89.21C100.706 89.21 100.073 89.0973 99.5356 88.872C98.9983 88.638 98.5519 88.313 98.1966 87.897C97.8413 87.4723 97.5769 86.9653 97.4036 86.376C97.2303 85.7867 97.1436 85.1323 97.1436 84.413C97.1436 83.4597 97.2996 82.6277 97.6116 81.917C97.9236 81.2063 98.3959 80.6517 99.0286 80.253C99.6699 79.8543 100.476 79.655 101.447 79.655C102.374 79.655 103.154 79.8543 103.787 80.253C104.419 80.643 104.896 81.1977 105.217 81.917C105.546 82.6277 105.711 83.464 105.711 84.426ZM98.3786 84.426C98.3786 85.206 98.4869 85.8777 98.7036 86.441C98.9203 87.0043 99.2539 87.4377 99.7046 87.741C100.164 88.0443 100.74 88.196 101.434 88.196C102.136 88.196 102.708 88.0443 103.15 87.741C103.6 87.4377 103.934 87.0043 104.151 86.441C104.367 85.8777 104.476 85.206 104.476 84.426C104.476 83.256 104.233 82.3417 103.748 81.683C103.262 81.0157 102.495 80.682 101.447 80.682C100.745 80.682 100.164 80.8337 99.7046 81.137C99.2539 81.4317 98.9203 81.8607 98.7036 82.424C98.4869 82.9787 98.3786 83.646 98.3786 84.426ZM113.767 79.798V88.04H114.95V91.524H113.832V89.08H107.449V91.524H106.331V88.04H107.046C107.358 87.5027 107.653 86.9003 107.93 86.233C108.216 85.5657 108.467 84.868 108.684 84.14C108.901 83.4033 109.078 82.6667 109.217 81.93C109.356 81.1933 109.442 80.4827 109.477 79.798H113.767ZM110.504 80.851C110.469 81.3537 110.383 81.9213 110.244 82.554C110.114 83.1867 109.945 83.8367 109.737 84.504C109.538 85.1627 109.312 85.7997 109.061 86.415C108.818 87.0303 108.558 87.572 108.281 88.04H112.61V80.851H110.504ZM121.689 89.08H116.502V79.798H121.689V80.825H117.672V83.724H121.455V84.738H117.672V88.053H121.689V89.08ZM127.704 80.695C127.21 80.695 126.764 80.7817 126.365 80.955C125.966 81.1197 125.628 81.3667 125.351 81.696C125.074 82.0167 124.861 82.411 124.714 82.879C124.567 83.3383 124.493 83.8583 124.493 84.439C124.493 85.2017 124.61 85.8647 124.844 86.428C125.087 86.9913 125.442 87.4247 125.91 87.728C126.387 88.0313 126.98 88.183 127.691 88.183C128.098 88.183 128.484 88.1483 128.848 88.079C129.212 88.0097 129.567 87.923 129.914 87.819V88.833C129.567 88.963 129.208 89.0583 128.835 89.119C128.471 89.1797 128.033 89.21 127.522 89.21C126.577 89.21 125.789 89.015 125.156 88.625C124.523 88.235 124.047 87.6803 123.726 86.961C123.414 86.2417 123.258 85.3967 123.258 84.426C123.258 83.724 123.353 83.0827 123.544 82.502C123.743 81.9213 124.029 81.4187 124.402 80.994C124.783 80.5693 125.251 80.2443 125.806 80.019C126.361 79.785 126.998 79.668 127.717 79.668C128.194 79.668 128.653 79.7157 129.095 79.811C129.537 79.9063 129.931 80.0407 130.278 80.214L129.81 81.202C129.524 81.072 129.203 80.955 128.848 80.851C128.501 80.747 128.12 80.695 127.704 80.695ZM135.664 80.695C135.17 80.695 134.723 80.7817 134.325 80.955C133.926 81.1197 133.588 81.3667 133.311 81.696C133.033 82.0167 132.821 82.411 132.674 82.879C132.526 83.3383 132.453 83.8583 132.453 84.439C132.453 85.2017 132.57 85.8647 132.804 86.428C133.046 86.9913 133.402 87.4247 133.87 87.728C134.346 88.0313 134.94 88.183 135.651 88.183C136.058 88.183 136.444 88.1483 136.808 88.079C137.172 88.0097 137.527 87.923 137.874 87.819V88.833C137.527 88.963 137.167 89.0583 136.795 89.119C136.431 89.1797 135.993 89.21 135.482 89.21C134.537 89.21 133.748 89.015 133.116 88.625C132.483 88.235 132.006 87.6803 131.686 86.961C131.374 86.2417 131.218 85.3967 131.218 84.426C131.218 83.724 131.313 83.0827 131.504 82.502C131.703 81.9213 131.989 81.4187 132.362 80.994C132.743 80.5693 133.211 80.2443 133.766 80.019C134.32 79.785 134.957 79.668 135.677 79.668C136.153 79.668 136.613 79.7157 137.055 79.811C137.497 79.9063 137.891 80.0407 138.238 80.214L137.77 81.202C137.484 81.072 137.163 80.955 136.808 80.851C136.461 80.747 136.08 80.695 135.664 80.695ZM145.724 89.08L144.606 86.207H140.927L139.822 89.08H138.639L142.266 79.759H143.319L146.933 89.08H145.724ZM143.215 82.359C143.189 82.2897 143.145 82.164 143.085 81.982C143.024 81.8 142.963 81.6137 142.903 81.423C142.851 81.2237 142.807 81.072 142.773 80.968C142.729 81.1413 142.682 81.319 142.63 81.501C142.586 81.6743 142.539 81.8347 142.487 81.982C142.443 82.1293 142.404 82.255 142.37 82.359L141.317 85.167H144.255L143.215 82.359ZM155.776 91.927H151.356V89.86H153.384V79.382H151.356V77.328H155.776V91.927Z" fill="black"/>
<path d="M41.52 7.92V18.88H18.64V30.72H35.76V41.36H18.64V64.08H4.96V7.92H41.52ZM55.59 14.8C53.19 14.8 51.2167 14.1067 49.67 12.72C48.1767 11.28 47.43 9.52 47.43 7.44001C47.43 5.30667 48.1767 3.54667 49.67 2.16C51.2167 0.720001 53.19 9.53674e-07 55.59 9.53674e-07C57.9367 9.53674e-07 59.8567 0.720001 61.35 2.16C62.8967 3.54667 63.67 5.30667 63.67 7.44001C63.67 9.52 62.8967 11.28 61.35 12.72C59.8567 14.1067 57.9367 14.8 55.59 14.8ZM62.39 19.44V64.08H48.71V19.44H62.39ZM85.9838 4.88V64.08H72.3038V4.88H85.9838ZM102.778 14.8C100.378 14.8 98.4042 14.1067 96.8575 12.72C95.3642 11.28 94.6175 9.52 94.6175 7.44001C94.6175 5.30667 95.3642 3.54667 96.8575 2.16C98.4042 0.720001 100.378 9.53674e-07 102.778 9.53674e-07C105.124 9.53674e-07 107.044 0.720001 108.538 2.16C110.084 3.54667 110.858 5.30667 110.858 7.44001C110.858 9.52 110.084 11.28 108.538 12.72C107.044 14.1067 105.124 14.8 102.778 14.8ZM109.578 19.44V64.08H95.8975V19.44H109.578ZM146.691 18.96C151.918 18.96 156.078 20.6667 159.171 24.08C162.318 27.44 163.891 32.08 163.891 38V64.08H150.291V39.84C150.291 36.8533 149.518 34.5333 147.971 32.88C146.425 31.2267 144.345 30.4 141.731 30.4C139.118 30.4 137.038 31.2267 135.491 32.88C133.945 34.5333 133.171 36.8533 133.171 39.84V64.08H119.491V19.44H133.171V25.36C134.558 23.3867 136.425 21.84 138.771 20.72C141.118 19.5467 143.758 18.96 146.691 18.96Z" fill="#FFC700"/>
</svg>
