<svg width="284" height="117" viewBox="0 0 284 117" fill="none" xmlns="http://www.w3.org/2000/svg">
<path d="M8.96 94.02V97.18H5.84V113.3H8.96V116.48H2.16V94.02H8.96ZM16.2173 112.1V97.82H26.9373V112.1H25.1573V99.4H18.0173V112.1H16.2173ZM39.9262 106.72C39.9262 107.613 39.8063 108.407 39.5663 109.1C39.3396 109.78 39.0063 110.36 38.5663 110.84C38.1396 111.32 37.6129 111.687 36.9863 111.94C36.3729 112.18 35.6863 112.3 34.9263 112.3C34.2196 112.3 33.5663 112.18 32.9663 111.94C32.3663 111.687 31.8463 111.32 31.4062 110.84C30.9663 110.36 30.6196 109.78 30.3663 109.1C30.1263 108.407 30.0063 107.613 30.0063 106.72C30.0063 105.533 30.2063 104.533 30.6063 103.72C31.0063 102.893 31.5796 102.267 32.3263 101.84C33.0729 101.4 33.9596 101.18 34.9863 101.18C35.9596 101.18 36.8129 101.4 37.5463 101.84C38.2929 102.267 38.8729 102.893 39.2863 103.72C39.7129 104.533 39.9262 105.533 39.9262 106.72ZM31.8263 106.72C31.8263 107.56 31.9329 108.293 32.1463 108.92C32.3729 109.533 32.7196 110.007 33.1863 110.34C33.6529 110.673 34.2463 110.84 34.9663 110.84C35.6863 110.84 36.2796 110.673 36.7463 110.34C37.2129 110.007 37.5529 109.533 37.7663 108.92C37.9929 108.293 38.1063 107.56 38.1063 106.72C38.1063 105.867 37.9929 105.14 37.7663 104.54C37.5396 103.94 37.1929 103.48 36.7263 103.16C36.2729 102.827 35.6796 102.66 34.9463 102.66C33.8529 102.66 33.0596 103.02 32.5663 103.74C32.0729 104.46 31.8263 105.453 31.8263 106.72ZM44.0603 105.28C44.0603 105.907 44.2336 106.373 44.5803 106.68C44.9403 106.973 45.4536 107.12 46.1203 107.12C46.787 107.12 47.3936 107.02 47.9403 106.82C48.487 106.607 49.047 106.327 49.6203 105.98V101.38H51.3803V112.1H49.6203V107.32C49.0203 107.707 48.427 108.013 47.8403 108.24C47.267 108.453 46.5736 108.56 45.7603 108.56C44.667 108.56 43.8136 108.273 43.2003 107.7C42.6003 107.127 42.3003 106.36 42.3003 105.4V101.38H44.0603V105.28ZM58.9259 101.18C59.8459 101.18 60.6326 101.38 61.2859 101.78C61.9526 102.18 62.4593 102.747 62.8059 103.48C63.1659 104.2 63.3459 105.047 63.3459 106.02V107.08H56.0059C56.0326 108.293 56.3393 109.22 56.9259 109.86C57.5259 110.487 58.3593 110.8 59.4259 110.8C60.1059 110.8 60.7059 110.74 61.2259 110.62C61.7593 110.487 62.3059 110.3 62.8659 110.06V111.6C62.3193 111.84 61.7793 112.013 61.2459 112.12C60.7126 112.24 60.0793 112.3 59.3459 112.3C58.3326 112.3 57.4326 112.093 56.6459 111.68C55.8726 111.267 55.2659 110.653 54.8259 109.84C54.3993 109.013 54.1859 108.007 54.1859 106.82C54.1859 105.647 54.3793 104.64 54.7659 103.8C55.1659 102.96 55.7193 102.313 56.4259 101.86C57.1459 101.407 57.9793 101.18 58.9259 101.18ZM58.9059 102.62C58.0659 102.62 57.3993 102.893 56.9059 103.44C56.4259 103.973 56.1393 104.72 56.0459 105.68H61.5059C61.5059 105.067 61.4126 104.533 61.2259 104.08C61.0393 103.627 60.7526 103.273 60.3659 103.02C59.9926 102.753 59.5059 102.62 58.9059 102.62ZM77.575 101.38V112.1H75.995V105.26C75.995 104.98 76.0017 104.687 76.015 104.38C76.0417 104.073 76.0683 103.773 76.095 103.48H76.035L72.535 112.1H71.055L67.655 103.48H67.595C67.6217 103.773 67.635 104.073 67.635 104.38C67.6483 104.687 67.655 105 67.655 105.32V112.1H66.075V101.38H68.415L71.795 110L75.235 101.38H77.575ZM79.3169 101.38H81.1969L83.5169 107.48C83.6502 107.84 83.7702 108.187 83.8769 108.52C83.9969 108.853 84.1035 109.18 84.1969 109.5C84.2902 109.807 84.3635 110.107 84.4169 110.4H84.4969C84.5769 110.067 84.7035 109.633 84.8769 109.1C85.0502 108.553 85.2302 108.007 85.4169 107.46L87.5969 101.38H89.4969L84.8769 113.58C84.6235 114.247 84.3235 114.827 83.9769 115.32C83.6435 115.827 83.2302 116.213 82.7369 116.48C82.2569 116.76 81.6702 116.9 80.9769 116.9C80.6569 116.9 80.3769 116.88 80.1369 116.84C79.8969 116.813 79.6902 116.78 79.5169 116.74V115.34C79.6635 115.367 79.8369 115.393 80.0369 115.42C80.2502 115.447 80.4702 115.46 80.6969 115.46C81.1102 115.46 81.4635 115.38 81.7569 115.22C82.0635 115.073 82.3235 114.853 82.5369 114.56C82.7502 114.28 82.9302 113.947 83.0769 113.56L83.6369 112.14L79.3169 101.38ZM105.144 104.08C105.144 104.747 104.944 105.267 104.544 105.64C104.144 106.013 103.631 106.267 103.004 106.4V106.48C103.671 106.573 104.251 106.813 104.744 107.2C105.238 107.573 105.484 108.16 105.484 108.96C105.484 109.413 105.398 109.833 105.224 110.22C105.064 110.607 104.811 110.94 104.464 111.22C104.118 111.5 103.671 111.72 103.124 111.88C102.578 112.027 101.918 112.1 101.144 112.1H96.5242V101.38H101.124C101.884 101.38 102.564 101.467 103.164 101.64C103.778 101.8 104.258 102.08 104.604 102.48C104.964 102.867 105.144 103.4 105.144 104.08ZM103.664 108.96C103.664 108.347 103.431 107.907 102.964 107.64C102.498 107.373 101.811 107.24 100.904 107.24H98.2842V110.68H100.944C101.824 110.68 102.498 110.553 102.964 110.3C103.431 110.033 103.664 109.587 103.664 108.96ZM103.364 104.3C103.364 103.793 103.178 103.427 102.804 103.2C102.444 102.96 101.851 102.84 101.024 102.84H98.2842V105.78H100.704C101.571 105.78 102.231 105.66 102.684 105.42C103.138 105.18 103.364 104.807 103.364 104.3ZM108.048 112.1V101.38H109.808V105.78H112.588C113.521 105.78 114.288 105.893 114.888 106.12C115.488 106.347 115.934 106.687 116.228 107.14C116.521 107.58 116.668 108.14 116.668 108.82C116.668 109.487 116.521 110.067 116.228 110.56C115.948 111.053 115.501 111.433 114.888 111.7C114.288 111.967 113.494 112.1 112.508 112.1H108.048ZM112.348 110.68C113.108 110.68 113.728 110.553 114.208 110.3C114.688 110.033 114.928 109.573 114.928 108.92C114.928 108.267 114.708 107.827 114.268 107.6C113.828 107.36 113.194 107.24 112.368 107.24H109.808V110.68H112.348ZM118.448 112.1V101.38H120.208V112.1H118.448ZM123.054 105.66C123.054 104.1 123.207 102.773 123.514 101.68C123.834 100.573 124.321 99.6933 124.974 99.04C125.641 98.3733 126.494 97.9266 127.534 97.7C128.401 97.5133 129.247 97.3466 130.074 97.2C130.901 97.0533 131.674 96.92 132.394 96.8L132.694 98.34C132.347 98.3933 131.961 98.46 131.534 98.54C131.107 98.6066 130.674 98.68 130.234 98.76C129.794 98.8266 129.367 98.9 128.954 98.98C128.554 99.0466 128.201 99.1133 127.894 99.18C127.454 99.2733 127.061 99.4333 126.714 99.66C126.367 99.8733 126.067 100.167 125.814 100.54C125.574 100.913 125.381 101.373 125.234 101.92C125.087 102.467 125.001 103.113 124.974 103.86H125.094C125.281 103.607 125.534 103.347 125.854 103.08C126.187 102.813 126.581 102.587 127.034 102.4C127.501 102.213 128.027 102.12 128.614 102.12C129.547 102.12 130.321 102.327 130.934 102.74C131.561 103.14 132.027 103.7 132.334 104.42C132.654 105.14 132.814 105.98 132.814 106.94C132.814 108.127 132.607 109.12 132.194 109.92C131.781 110.72 131.207 111.32 130.474 111.72C129.741 112.107 128.887 112.3 127.914 112.3C127.181 112.3 126.514 112.16 125.914 111.88C125.314 111.587 124.801 111.16 124.374 110.6C123.947 110.04 123.621 109.347 123.394 108.52C123.167 107.693 123.054 106.74 123.054 105.66ZM128.054 110.84C128.641 110.84 129.147 110.72 129.574 110.48C130.014 110.24 130.354 109.847 130.594 109.3C130.834 108.753 130.954 108.027 130.954 107.12C130.954 106.027 130.747 105.167 130.334 104.54C129.934 103.9 129.267 103.58 128.334 103.58C127.747 103.58 127.214 103.713 126.734 103.98C126.254 104.233 125.854 104.527 125.534 104.86C125.214 105.193 124.987 105.473 124.854 105.7C124.854 106.353 124.901 106.987 124.994 107.6C125.087 108.213 125.247 108.767 125.474 109.26C125.714 109.74 126.041 110.127 126.454 110.42C126.881 110.7 127.414 110.84 128.054 110.84ZM137.247 107.92C137.247 108.04 137.24 108.213 137.227 108.44C137.227 108.653 137.22 108.887 137.207 109.14C137.193 109.38 137.18 109.613 137.167 109.84C137.153 110.053 137.14 110.227 137.127 110.36L142.867 101.38H145.027V112.1H143.387V105.78C143.387 105.567 143.387 105.287 143.387 104.94C143.4 104.593 143.413 104.253 143.427 103.92C143.44 103.573 143.453 103.313 143.467 103.14L137.767 112.1H135.587V101.38H137.247V107.92ZM153.538 101.18C154.858 101.18 155.918 101.64 156.718 102.56C157.532 103.48 157.938 104.867 157.938 106.72C157.938 107.933 157.752 108.96 157.378 109.8C157.018 110.627 156.505 111.253 155.838 111.68C155.185 112.093 154.412 112.3 153.518 112.3C152.972 112.3 152.485 112.227 152.058 112.08C151.632 111.933 151.265 111.747 150.958 111.52C150.665 111.28 150.412 111.02 150.198 110.74H150.078C150.105 110.967 150.132 111.253 150.158 111.6C150.185 111.947 150.198 112.247 150.198 112.5V116.9H148.438V101.38H149.878L150.118 102.84H150.198C150.412 102.533 150.665 102.253 150.958 102C151.265 101.747 151.625 101.547 152.038 101.4C152.465 101.253 152.965 101.18 153.538 101.18ZM153.218 102.66C152.498 102.66 151.918 102.8 151.478 103.08C151.038 103.347 150.718 103.753 150.518 104.3C150.318 104.847 150.212 105.54 150.198 106.38V106.72C150.198 107.6 150.292 108.347 150.478 108.96C150.665 109.573 150.978 110.04 151.418 110.36C151.872 110.68 152.485 110.84 153.258 110.84C153.912 110.84 154.445 110.66 154.858 110.3C155.285 109.94 155.598 109.453 155.798 108.84C156.012 108.213 156.118 107.5 156.118 106.7C156.118 105.473 155.878 104.493 155.398 103.76C154.932 103.027 154.205 102.66 153.218 102.66ZM164.803 101.2C166.11 101.2 167.076 101.487 167.703 102.06C168.33 102.633 168.643 103.547 168.643 104.8V112.1H167.363L167.023 110.58H166.943C166.636 110.967 166.316 111.293 165.983 111.56C165.663 111.813 165.29 112 164.863 112.12C164.45 112.24 163.943 112.3 163.343 112.3C162.703 112.3 162.123 112.187 161.603 111.96C161.096 111.733 160.696 111.387 160.403 110.92C160.11 110.44 159.963 109.84 159.963 109.12C159.963 108.053 160.383 107.233 161.223 106.66C162.063 106.073 163.356 105.753 165.103 105.7L166.923 105.64V105C166.923 104.107 166.73 103.487 166.343 103.14C165.956 102.793 165.41 102.62 164.703 102.62C164.143 102.62 163.61 102.707 163.103 102.88C162.596 103.04 162.123 103.227 161.683 103.44L161.143 102.12C161.61 101.867 162.163 101.653 162.803 101.48C163.443 101.293 164.11 101.2 164.803 101.2ZM165.323 106.92C163.99 106.973 163.063 107.187 162.543 107.56C162.036 107.933 161.783 108.46 161.783 109.14C161.783 109.74 161.963 110.18 162.323 110.46C162.696 110.74 163.17 110.88 163.743 110.88C164.65 110.88 165.403 110.633 166.003 110.14C166.603 109.633 166.903 108.86 166.903 107.82V106.86L165.323 106.92ZM185.874 106.72C185.874 107.907 185.681 108.92 185.294 109.76C184.907 110.587 184.361 111.22 183.654 111.66C182.947 112.087 182.107 112.3 181.134 112.3C180.227 112.3 179.434 112.113 178.754 111.74C178.074 111.353 177.534 110.793 177.134 110.06C176.734 109.313 176.501 108.4 176.434 107.32H173.714V112.1H171.954V101.38H173.714V105.84H176.454C176.547 104.827 176.794 103.98 177.194 103.3C177.607 102.607 178.147 102.08 178.814 101.72C179.494 101.36 180.281 101.18 181.174 101.18C182.094 101.18 182.907 101.4 183.614 101.84C184.321 102.267 184.874 102.893 185.274 103.72C185.674 104.533 185.874 105.533 185.874 106.72ZM178.234 106.72C178.234 107.613 178.334 108.367 178.534 108.98C178.747 109.593 179.067 110.06 179.494 110.38C179.921 110.687 180.474 110.84 181.154 110.84C181.834 110.84 182.387 110.687 182.814 110.38C183.241 110.06 183.554 109.593 183.754 108.98C183.954 108.367 184.054 107.613 184.054 106.72C184.054 105.827 183.954 105.08 183.754 104.48C183.554 103.88 183.241 103.427 182.814 103.12C182.387 102.813 181.834 102.66 181.154 102.66C180.474 102.66 179.921 102.813 179.494 103.12C179.067 103.427 178.747 103.88 178.534 104.48C178.334 105.08 178.234 105.827 178.234 106.72ZM195.877 102.86H192.377V112.1H190.637V102.86H187.177V101.38H195.877V102.86ZM205.081 101.38V105.84H210.901V101.38H212.661V112.1H210.901V107.32H205.081V112.1H203.321V101.38H205.081ZM220.115 101.2C221.422 101.2 222.389 101.487 223.015 102.06C223.642 102.633 223.955 103.547 223.955 104.8V112.1H222.675L222.335 110.58H222.255C221.949 110.967 221.629 111.293 221.295 111.56C220.975 111.813 220.602 112 220.175 112.12C219.762 112.24 219.255 112.3 218.655 112.3C218.015 112.3 217.435 112.187 216.915 111.96C216.409 111.733 216.009 111.387 215.715 110.92C215.422 110.44 215.275 109.84 215.275 109.12C215.275 108.053 215.695 107.233 216.535 106.66C217.375 106.073 218.669 105.753 220.415 105.7L222.235 105.64V105C222.235 104.107 222.042 103.487 221.655 103.14C221.269 102.793 220.722 102.62 220.015 102.62C219.455 102.62 218.922 102.707 218.415 102.88C217.909 103.04 217.435 103.227 216.995 103.44L216.455 102.12C216.922 101.867 217.475 101.653 218.115 101.48C218.755 101.293 219.422 101.2 220.115 101.2ZM220.635 106.92C219.302 106.973 218.375 107.187 217.855 107.56C217.349 107.933 217.095 108.46 217.095 109.14C217.095 109.74 217.275 110.18 217.635 110.46C218.009 110.74 218.482 110.88 219.055 110.88C219.962 110.88 220.715 110.633 221.315 110.14C221.915 109.633 222.215 108.86 222.215 107.82V106.86L220.635 106.92ZM231.566 112.3C230.62 112.3 229.773 112.107 229.026 111.72C228.293 111.333 227.713 110.733 227.286 109.92C226.873 109.107 226.666 108.067 226.666 106.8C226.666 105.48 226.886 104.407 227.326 103.58C227.766 102.753 228.36 102.147 229.106 101.76C229.866 101.373 230.726 101.18 231.686 101.18C232.233 101.18 232.76 101.24 233.266 101.36C233.773 101.467 234.186 101.6 234.506 101.76L233.966 103.22C233.646 103.1 233.273 102.987 232.846 102.88C232.42 102.773 232.02 102.72 231.646 102.72C230.926 102.72 230.333 102.873 229.866 103.18C229.4 103.487 229.053 103.94 228.826 104.54C228.6 105.14 228.486 105.887 228.486 106.78C228.486 107.633 228.6 108.36 228.826 108.96C229.053 109.56 229.393 110.013 229.846 110.32C230.3 110.627 230.866 110.78 231.546 110.78C232.133 110.78 232.646 110.72 233.086 110.6C233.54 110.48 233.953 110.333 234.326 110.16V111.72C233.966 111.907 233.566 112.047 233.126 112.14C232.7 112.247 232.18 112.3 231.566 112.3ZM248.768 116.48H241.968V113.3H245.088V97.18H241.968V94.02H248.768V116.48Z" fill="black"/>
<path d="M51.9 9.89997V23.6H23.3V38.4H44.7V51.7H23.3V80.1H6.2V9.89997H51.9ZM69.4875 18.5C66.4875 18.5 64.0208 17.6333 62.0875 15.9C60.2208 14.1 59.2875 11.9 59.2875 9.29998C59.2875 6.63331 60.2208 4.43331 62.0875 2.69997C64.0208 0.89997 66.4875 -3.02792e-05 69.4875 -3.02792e-05C72.4208 -3.02792e-05 74.8208 0.89997 76.6875 2.69997C78.6208 4.43331 79.5875 6.63331 79.5875 9.29998C79.5875 11.9 78.6208 14.1 76.6875 15.9C74.8208 17.6333 72.4208 18.5 69.4875 18.5ZM77.9875 24.3V80.1H60.8875V24.3H77.9875ZM107.48 6.09997V80.1H90.3797V6.09997H107.48ZM128.472 18.5C125.472 18.5 123.005 17.6333 121.072 15.9C119.205 14.1 118.272 11.9 118.272 9.29998C118.272 6.63331 119.205 4.43331 121.072 2.69997C123.005 0.89997 125.472 -3.02792e-05 128.472 -3.02792e-05C131.405 -3.02792e-05 133.805 0.89997 135.672 2.69997C137.605 4.43331 138.572 6.63331 138.572 9.29998C138.572 11.9 137.605 14.1 135.672 15.9C133.805 17.6333 131.405 18.5 128.472 18.5ZM136.972 24.3V80.1H119.872V24.3H136.972ZM183.364 23.7C189.897 23.7 195.097 25.8333 198.964 30.1C202.897 34.3 204.864 40.1 204.864 47.5V80.1H187.864V49.8C187.864 46.0666 186.897 43.1666 184.964 41.1C183.031 39.0333 180.431 38 177.164 38C173.897 38 171.297 39.0333 169.364 41.1C167.431 43.1666 166.464 46.0666 166.464 49.8V80.1H149.364V24.3H166.464V31.7C168.197 29.2333 170.531 27.3 173.464 25.9C176.397 24.4333 179.697 23.7 183.364 23.7Z" fill="#FFC700"/>
</svg>
